<svg preserveAspectRatio="none" overflow="visible" style="display: block;" width="57.8082" height="57.8082" viewBox="0 0 57.8082 57.8082" fill="none" xmlns="http://www.w3.org/2000/svg">
<g id="Light-Default App Icon">
<g clip-path="url(#clip0_0_1219)">
<rect width="57.8082" height="57.8082" rx="14.9338" fill="url(#paint0_linear_0_1219)"/>
<rect id="Glass Background" width="57.8082" height="57.8082" rx="14.9338" fill="black" fill-opacity="0.01"/>
<g id="Base Symbol" filter="url(#filter1_dd_0_1219)">
<path d="M35.3552 33.9525C35.621 33.9525 35.9866 33.7841 36.2471 33.6158C43.7129 28.8162 48.5507 23.269 48.5507 17.6073C48.5507 12.9534 45.34 9.6347 41.1664 9.6347C38.5946 9.6347 36.5363 11.0755 35.3552 13.2751C34.186 11.0874 32.1159 9.6347 29.5441 9.6347C25.3704 9.6347 22.1598 12.9534 22.1598 17.6073C22.1598 23.269 26.9923 28.8162 34.4634 33.6158C34.7185 33.7841 35.1013 33.9525 35.3552 33.9525Z" fill="url(#paint1_linear_0_1219)" shape-rendering="crispEdges"/>
<path d="M35.3552 33.9525C35.621 33.9525 35.9866 33.7841 36.2471 33.6158C43.7129 28.8162 48.5507 23.269 48.5507 17.6073C48.5507 12.9534 45.34 9.6347 41.1664 9.6347C38.5946 9.6347 36.5363 11.0755 35.3552 13.2751C34.186 11.0874 32.1159 9.6347 29.5441 9.6347C25.3704 9.6347 22.1598 12.9534 22.1598 17.6073C22.1598 23.269 26.9923 28.8162 34.4634 33.6158C34.7185 33.7841 35.1013 33.9525 35.3552 33.9525Z" stroke="url(#paint2_linear_0_1219)" stroke-opacity="0.8" stroke-width="0.674429" shape-rendering="crispEdges"/>
</g>
<path id="Glass Symbol" d="M35.3552 33.9525C35.621 33.9525 35.9866 33.7841 36.2471 33.6158C43.7129 28.8162 48.5507 23.269 48.5507 17.6073C48.5507 12.9534 45.34 9.6347 41.1664 9.6347C38.5946 9.6347 36.5363 11.0755 35.3552 13.2751C34.186 11.0874 32.1159 9.6347 29.5441 9.6347C25.3704 9.6347 22.1598 12.9534 22.1598 17.6073C22.1598 23.269 26.9923 28.8162 34.4634 33.6158C34.7185 33.7841 35.1013 33.9525 35.3552 33.9525Z" fill="black" fill-opacity="0.01"/>
</g>
</g>
<defs>
<filter id="filter1_dd_0_1219" x="14.1148" y="2.5532" width="42.4808" height="40.4077" filterUnits="userSpaceOnUse" color-interpolation-filters="sRGB">
<feFlood flood-opacity="0" result="BackgroundImageFix"/>
<feColorMatrix in="SourceAlpha" type="matrix" values="0 0 0 0 0 0 0 0 0 0 0 0 0 0 0 0 0 0 127 0" result="hardAlpha"/>
<feOffset dy="0.96347"/>
<feGaussianBlur stdDeviation="3.85388"/>
<feComposite in2="hardAlpha" operator="out"/>
<feColorMatrix type="matrix" values="0 0 0 0 1 0 0 0 0 0.121569 0 0 0 0 0.176471 0 0 0 0.16 0"/>
<feBlend mode="normal" in2="BackgroundImageFix" result="effect1_dropShadow_0_1219"/>
<feColorMatrix in="SourceAlpha" type="matrix" values="0 0 0 0 0 0 0 0 0 0 0 0 0 0 0 0 0 0 127 0" result="hardAlpha"/>
<feOffset/>
<feGaussianBlur stdDeviation="0.96347"/>
<feComposite in2="hardAlpha" operator="out"/>
<feColorMatrix type="matrix" values="0 0 0 0 1 0 0 0 0 0.121569 0 0 0 0 0.176471 0 0 0 0.1 0"/>
<feBlend mode="normal" in2="effect1_dropShadow_0_1219" result="effect2_dropShadow_0_1219"/>
<feBlend mode="normal" in="SourceGraphic" in2="effect2_dropShadow_0_1219" result="shape"/>
</filter>
<linearGradient id="paint0_linear_0_1219" x1="28.9041" y1="0" x2="28.9041" y2="57.8082" gradientUnits="userSpaceOnUse">
<stop stop-color="#FEFFFF"/>
<stop offset="1" stop-color="#E8E9E9"/>
</linearGradient>
<linearGradient id="paint1_linear_0_1219" x1="35.3552" y1="9.6347" x2="35.3552" y2="33.9525" gradientUnits="userSpaceOnUse">
<stop stop-color="#FF42B2"/>
<stop offset="0.65" stop-color="#FF1F2D"/>
</linearGradient>
<linearGradient id="paint2_linear_0_1219" x1="35.3552" y1="9.6347" x2="35.3552" y2="33.9525" gradientUnits="userSpaceOnUse">
<stop stop-color="#FF42B2"/>
<stop offset="0.65" stop-color="#FF1F2D"/>
</linearGradient>
<clipPath id="clip0_0_1219">
<rect width="57.8082" height="57.8082" rx="14.9338" fill="white"/>
</clipPath>
</defs>
</svg>
