<svg preserveAspectRatio="none" overflow="visible" style="display: block;" width="20" height="20" viewBox="0 0 20 20" fill="none" xmlns="http://www.w3.org/2000/svg">
<g id="lucide/id-card-lanyard">
<path id="Vector" d="M11.25 6.66667H8.75M12.5 1.66667L11.6667 3.33333H14.1667C14.6087 3.33333 15.0326 3.50893 15.3452 3.82149C15.6577 4.13405 15.8333 4.55797 15.8333 5V16.6667C15.8333 17.1087 15.6577 17.5326 15.3452 17.8452C15.0326 18.1577 14.6087 18.3333 14.1667 18.3333H5.83333C5.39131 18.3333 4.96738 18.1577 4.65482 17.8452C4.34226 17.5326 4.16667 17.1087 4.16667 16.6667V5C4.16667 4.55797 4.34226 4.13405 4.65482 3.82149C4.96738 3.50893 5.39131 3.33333 5.83333 3.33333H8.33333M14.0825 18.3333C13.8908 17.3919 13.3797 16.5456 12.6357 15.9377C11.8916 15.3299 10.9604 14.9979 9.99958 14.9979C9.03881 14.9979 8.10756 15.3299 7.36351 15.9377C6.61946 16.5456 6.10833 17.3919 5.91667 18.3333M7.5 1.66667L10 6.66667M12.5 12.5C12.5 13.8807 11.3807 15 10 15C8.61929 15 7.5 13.8807 7.5 12.5C7.5 11.1193 8.61929 10 10 10C11.3807 10 12.5 11.1193 12.5 12.5Z" stroke="#ED7D4C" stroke-width="1.5" stroke-linecap="round" stroke-linejoin="round"/>
</g>
</svg>
